<svg version="1.0" xmlns="http://www.w3.org/2000/svg"
 width="30.000000pt" height="30.000000pt" viewBox="0 0 30.000000 30.000000"
 preserveAspectRatio="xMidYMid meet">

<g transform="translate(0.000000,30.000000) scale(0.100000,-0.100000)"
fill="#42446E" stroke="none">
<path d="M95 286 c-102 -44 -122 -172 -40 -245 64 -56 147 -50 204 14 53 61
50 143 -7 198 -48 46 -102 57 -157 33z m127 -81 c5 -6 -20 -126 -28 -134 -2
-2 -13 4 -24 14 -16 14 -22 15 -35 5 -28 -23 -18 21 13 54 l27 29 -33 -22
c-23 -16 -40 -21 -59 -16 -34 8 -22 18 57 49 73 28 75 28 82 21z"/>
</g>
</svg>
